<?xml version="1.0" encoding="utf-8"?>
<!-- Generator: Adobe Illustrator 16.0.0, SVG Export Plug-In . SVG Version: 6.00 Build 0)  -->
<!DOCTYPE svg PUBLIC "-//W3C//DTD SVG 1.1//EN" "http://www.w3.org/Graphics/SVG/1.1/DTD/svg11.dtd">
<svg version="1.1" id="Capa_1" xmlns="http://www.w3.org/2000/svg" xmlns:xlink="http://www.w3.org/1999/xlink" x="0px" y="0px"
	 width="400px" height="400px" viewBox="0 0 400 400" enable-background="new 0 0 400 400" xml:space="preserve">
<g>
	<path fill="#FFFFFF" d="M265.852,108.494c0.433-10.604,2.448-39.444,22.823-48.14c-23.075,5.035-41.961,16.361-49.614,42.465
		c-1.053,3.241-3.031,11.753-2.723,25.969c0.385,17.689,0.563,62.459,0.389,65.173s-5.435,3.936-7.406,3.865
		c3.371,1.583,6.787-0.145,7.007,10.037c0.217,10.183,1.655,27.188-1.396,29.609c-2.994,2.377-6.755,2.565-7.271,2.555
		c4.095,2.181,8.428,5.146,8.529,12.869c0,0-0.349,36.088,0.422,38.739c0.771,2.653-0.317,3.82,7.75,5.104
		c1.826,0.404,0.521,1.511-0.896,1.963c-1.419,0.453-6.592,2.175-9.709,2.354c-3.115,0.18-5.92-1.396-6.533-3.459
		c-0.803,2.822-3.015,11.646,1.344,16.23c4.355,4.586,8.75,8.934,21.317-0.291c12.567-9.227,24.404-13.292,27.37-10.477
		c-0.336-3.271-2.004-12.895-7.854-11.802c-2.467,0.507-4.043,0.683-3.946-1.442c0.096-2.127-0.045-37.194,0.194-46.526
		c0.237-9.331,0.765-43.797,0.08-48.634c-0.686-4.836,0.659-9.134,4.104-7.797c3.442,1.339,9.813,3.254,13.938,3.352
		c4.119,0.098,3.801-1.743,4.028,1.816c0.229,3.56,0.171,28.657,0.228,31.202c0.055,2.545,0.636,3.219-1.668,3.771
		c-2.307,0.557-7.047,2.229-8.059,3.102c3.039,0.558,10.151,2.729,10.125,17.754c-0.023,15.024,8.887,77.119-22.923,99.052
		c23.842-5.375,52.502-25.83,52.349-64.205c-0.151-38.375-6.979-84.881,5.74-95.45c-4.626-1.676-11.885-5.138-11.479-6.371
		c0.404-1.231,3.377-3.295,5.261-4.938c1.882-1.642,13.721-15.076,13.674-22.037c-3.072,3.708-13.56,20.468-35.828,11.711
		c-2.338-0.988-5.735-0.941-2.978-4.67c2.76-3.73,22.13-38.163,1.064-47.721c2.245,5.803,9.813,12.543-20.316,53.074
		c-3.914,4.809-7.646,10.075-7.608,4.494c0.015-1.851,0.021-8.161,0.043-16.156C265.467,138.531,265.563,115.582,265.852,108.494z"
		/>
	<path fill="#FFFFFF" d="M216.277,211.189c0.679-59.183,0.662-147.981,3.521-165.592c2.864-17.611,10.868-34.486,18.096-37.867
		c-18.808,2.913-36.312,17.793-43.29,49.261c-1.156,4.883-0.152,5.062-2.878,3.702c-2.726-1.362-8.964-2.268-12.577-1.875
		c4.063,2.873,11.038,8.385,11.955,20.251c0.917,11.864,0.149,121.005-0.057,139.768c0.034,7.204-0.042,9.087-1.369,9.376
		c-1.327,0.289-4.825,0.67-6.891,2.57c1.753,1.467,8.068,3.5,7.618,29.064c0,0-1.007,77.041-0.631,87.381
		c0.376,10.336,7.194,52.267,43.786,43.955c-8.896-5.951-18.847-12.938-18.588-51.893
		C215.229,300.339,216.277,211.189,216.277,211.189z"/>
	<g>
		<defs>
			<filter id="Adobe_OpacityMaskFilter" filterUnits="userSpaceOnUse" x="68.956" y="48.595" width="110.197" height="277.418">
				<feFlood  style="flood-color:white;flood-opacity:1" result="back"/>
				<feBlend  in="SourceGraphic" in2="back" mode="normal"/>
			</filter>
		</defs>
		<mask maskUnits="userSpaceOnUse" x="68.956" y="48.595" width="110.197" height="277.418" id="SVGID_1_">
			<g filter="url(#Adobe_OpacityMaskFilter)">
				<path fill="#010101" d="M117.954,149.101c0.067-3.794-1.063-7.126,3.338-2.778c5.022,4.962,7.209,5.988,11.235,10.381
					c4.025,4.392,23.727,16.052,13.026,29.154c-7.83,9.588-15.934,15.169-28.285,37.606
					C118.182,166.965,117.823,156.425,117.954,149.101z"/>
			</g>
		</mask>
		<path mask="url(#SVGID_1_)" fill="#FFFFFF" d="M117.485,209.363c0.036-2.551,0.788-3.551,3.755-4.348
			c4.344-1.168,16.921-7.913,28.569-18.188c11.648-10.276,26.48-29.817,25.369-39.637c-1.111-9.82-5.99-13.39-14.131-19.599
			c-8.14-6.208-40.69-35.273-44.271-48.878c-3.579-13.604-1.555-24.143,4.786-30.118c-8.176,6.902-36.098,37.574-20.485,66.37
			c5.417,11.043,11.359,15.982,11.797,17.164c0.437,1.182-1.191,2.442-4.511,4.604c-3.32,2.16-18.578,18.733-21.808,22.214
			c-3.229,3.481-9.302,8.887-11.17,9.225c0.834,1.333,3.867,1.674,4.46,3.719c0.594,2.045,2.868,12.547,2.64,18.045
			c-0.229,5.497-0.549,37.515-0.484,43.405s-1.915,4.8-3.815,5.367c-1.902,0.567-5.597,1.685-6.841,2.799
			c2.968,1.021,10.65,2.858,10.79,16.53c0.139,13.671,1.082,44.68-1.83,47.656c-2.912,2.979-4.805,5.438-6.021,8.554
			c-1.217,3.116-4.142,10.326-5.328,11.767c3.667-3.113,12.884-13.693,19.814-14.171c6.929-0.476,14.681-1.323,43.705,6.444
			c8.32,2.277,15.178,5.711,19.747,1.432c4.569-4.279,13.993-14.339,16.259-18.425c2.265-4.088,8.936-16.431,10.672-18.526
			c-6.488,2.289-13.126,8.059-22.309,7.162c-9.183-0.897-35.563-3.91-37.798-3.951c-2.234-0.041-2.782-0.608-2.604-4.539
			c0.092-2.041,0.717-21.881,0.857-39.502C117.428,225.616,117.472,210.348,117.485,209.363z"/>
		<path fill="#FFFFFF" d="M148.492,233.361c-18.292-25.396-56.414-6.834-57.554-0.396c2.622,1.844,7.239,3.688,17.264,12.846
			c4.35-5.99,10.178-10.725,16.803-13.75C133.075,228.377,142.224,228.827,148.492,233.361z"/>
	</g>
</g>
</svg>
