<?xml version="1.0" encoding="utf-8"?>
<!-- Generator: Adobe Illustrator 16.0.0, SVG Export Plug-In . SVG Version: 6.00 Build 0)  -->
<!DOCTYPE svg PUBLIC "-//W3C//DTD SVG 1.1//EN" "http://www.w3.org/Graphics/SVG/1.1/DTD/svg11.dtd">
<svg version="1.1" id="Capa_1" xmlns="http://www.w3.org/2000/svg" xmlns:xlink="http://www.w3.org/1999/xlink" x="0px" y="0px"
	 width="400px" height="239px" viewBox="0 0 400 239" enable-background="new 0 0 400 239" xml:space="preserve">
<g>
	<defs>
		<filter id="Adobe_OpacityMaskFilter" filterUnits="userSpaceOnUse" x="132.281" y="103.101" width="49.847" height="77.917">
			<feFlood  style="flood-color:white;flood-opacity:1" result="back"/>
			<feBlend  in="SourceGraphic" in2="back" mode="normal"/>
		</filter>
	</defs>
	<mask maskUnits="userSpaceOnUse" x="132.281" y="103.101" width="49.847" height="77.917" id="SVGID_4_">
		<g filter="url(#Adobe_OpacityMaskFilter)">
			<path fill="#010101" d="M157.773,126.084c0.104-0.593-0.035-1.57,1.397-0.768c1.433,0.804,6.358,3.145,7.476,5.31
				c1.118,2.166,1.502,3.599-2.655,6.533c-4.158,2.935-8.49,6.218-8.141,3.702c0.174-1.247,0.881-4.75,1.302-8.034
				C157.58,129.492,157.72,126.384,157.773,126.084z"/>
		</g>
	</mask>
	<path mask="url(#SVGID_4_)" fill="#343B49" d="M140.864,147.186c0.524-3.668,1.501-8.908,1.118-10.166
		c-0.384-1.258-0.646-1.834-1.651-2.071c0.095-0.47,0.75-0.679,0.979-0.826c0.727-0.474,9.825-7.825,11.432-9.293
		c1.607-1.468,3.913-2.479,4.052-2.688c0.141-0.209,0-1.188,0-1.923c0-0.734,0.629-7.58,9.258-13.588
		c2.271-1.538,3.055-2.341,4.647-3.529c0,0-2.481,2.585-2.166,5.555c0.314,2.97,0.838,5.17,6.952,7.965
		c6.114,2.795,11.703,6.096-1.083,15.213c-3.698,2.785-4.668,3.641-5.546,4.473c-0.633,0.601-1.341,1.488-0.236,2.018
		c2.087,0.996,2.323,2.054,2.567,2.508c-1.43-0.01-2.68,0.042-4.996,0.804c-1.929,0.636-7.782,2.49-10.568,5.313
		c-1.047,1.06-0.921,2.681-1.065,3.808c-0.524,4.122-1.643,12.479-1.904,14.098c-0.189,1.17-0.838,3.039,0.786,2.881
		c1.625-0.155,4.03-0.451,7.75-0.451c3.721,0,7.299-0.631,9.904-1.965c0,0,2.319-1.283,2.744-1.767
		c-0.02,0.146,0.021,0.413-0.857,1.392c-2.812,3.127-4.553,8.729-6.929,10.269c-2.375,1.537-1.013,1.537-5.834,1.468
		c-4.82-0.07-12.96-0.34-16.786,0.022c-3.825,0.36-7.52,2.099-9.275,3.139c-1.094,0.647-1.519,0.97-1.876,1.177
		c0.095-0.457,0.377-0.896,0.549-1.177c1.845-3.005,4.297-3.825,4.401-4.979c0.072-0.784,1.289-7.446,1.747-12.131
		c0.315-3.219,0.733-4.287,0.157-4.688c-1.193-0.832-2.917-1.119-3.335-1.229c0.042-0.101,0.23-0.217,0.627-0.357
		c1.852-0.664,3.494-0.594,3.633-2.061C140.2,152.915,140.864,147.186,140.864,147.186z"/>
	<path fill="#343B49" d="M348.537,85.442c1.097-6.067,4.563-22.5,16.984-25.872c-13.682,1.05-25.453,6.056-31.945,20.463
		c-0.864,1.78-0.916,2.203-2.141,1.446c-1.223-0.757-4.535-1.754-8.255-1.541c2.451,1.691,7.943,4.61,6.749,14.819
		c-1.192,10.208-4.674,35.982-4.989,37.529c-0.317,1.549-3.442,1.83-4.571,1.632c1.813,1.182,3.917,0.46,3.227,6.335
		c-0.688,5.877-1.222,15.778-3.171,16.927c-1.913,1.127-4.092,0.938-4.389,0.887c2.182,1.582,4.438,3.638,3.878,8.088
		c0,0-3.087,20.736-2.856,22.322c0.229,1.59-0.488,2.174,4.052,3.561c1.018,0.38,0.179,0.911-0.676,1.057
		c-0.853,0.147-3.967,0.727-5.772,0.579c-1.81-0.146-3.294-1.278-3.483-2.514c-0.687,1.56-2.665,6.459-0.523,9.446
		c2.141,2.985,4.318,5.84,12.289,1.537c7.97-4.303,15.104-5.693,16.587-3.838c0.066-1.908-0.121-7.578-3.574-7.418
		c-1.46,0.094-2.382,0.068-2.156-1.146c0.228-1.218,2.951-21.404,3.835-26.755c0.885-5.353,3.945-25.139,3.938-27.978
		c-0.009-2.838,1.109-5.202,2.984-4.155c1.876,1.045,5.39,2.654,7.751,3.043c2.362,0.386,2.326-0.699,2.176,1.367
		c-0.152,2.065-2.195,16.502-2.367,17.971c-0.173,1.468,0.105,1.901-1.264,2.037c-1.368,0.135-4.23,0.719-4.884,1.14
		c1.704,0.563,5.622,2.383,4.405,11.024c-1.218,8.644-1.061,45.084-21.116,55.155c14.148-1.185,32.275-10.659,35.258-32.752
		c2.983-22.093,2.776-49.396,10.941-54.461c-2.527-1.334-6.427-3.905-6.096-4.584c0.332-0.676,2.207-1.625,3.422-2.42
		s9.102-7.576,9.632-11.585c-2.065,1.888-9.439,10.691-21.552,3.872c-1.269-0.755-3.228-1-1.342-2.926
		c1.889-1.926,15.787-20.187,4.434-27.372c0.828,3.519,4.644,8.002-15.938,28.911c-2.638,2.455-5.206,5.184-4.735,1.977
		c0.153-1.063,0.666-4.694,1.315-9.292C345.912,102.694,347.804,89.497,348.537,85.442z"/>
	<path fill="#343B49" d="M242.734,145.029c3.375-28.125,7.687-70.33,10.623-78.688c2.938-8.356,9.574-16.336,14.985-17.907
		c-13.803,1.292-27.241,8.276-33.843,23.198c-1.078,2.315-0.355,2.405-2.271,1.745c-1.914-0.661-6.401-1.123-9.047-0.953
		c2.813,1.385,7.61,4.04,7.698,9.684c0.089,5.643-5.782,57.512-6.846,66.428c-0.326,3.426-0.474,4.318-1.452,4.449
		c-0.979,0.132-3.537,0.295-5.13,1.188c1.2,0.706,5.688,1.703,4.118,13.853c0,0-3.193,24.029-3.424,28.943
		c-0.229,4.916,2.681,24.877,29.666,21.108c-6.174-2.872-13.062-6.243-10.979-24.755
		C238.923,174.813,242.734,145.029,242.734,145.029z"/>
	<defs>
		<filter id="Adobe_OpacityMaskFilter_1_" filterUnits="userSpaceOnUse" x="244.957" y="110.495" width="51.505" height="71.465">
			<feFlood  style="flood-color:white;flood-opacity:1" result="back"/>
			<feBlend  in="SourceGraphic" in2="back" mode="normal"/>
		</filter>
	</defs>
	<mask maskUnits="userSpaceOnUse" x="244.957" y="110.495" width="51.505" height="71.465" id="SVGID_2_">
		<g filter="url(#Adobe_OpacityMaskFilter_1_)">
			<path fill="#010101" d="M277.84,136.68c0.842-6.337,1.563-11.619,1.592-12.295c0.027-0.676,0.229-1.087-0.707-0.863
				c-0.936,0.225-5.023,1.131-7.867-0.623c-2.842-1.756-2.93-0.519-2.953,0.494c-0.021,1.013-0.805,7.164-1.299,10.176
				c-0.494,3.011-4.959,30.83-4.355,33.961c0.604,3.133,1.438,1.727,5.146,3.609s5.535,2.101,5.396,0.445
				c-0.144-1.652,1.478-10.674,1.757-13.271c0.28-2.599,1.326-7.099-2.398-8.334c1.699-1.074,3.613-0.701,3.822-1.598
				C276.18,147.482,277.84,136.68,277.84,136.68z"/>
		</g>
	</mask>
	<path mask="url(#SVGID_2_)" fill="#343B49" d="M290.742,128.491c0.676-3.644,2.134-6.792,4.388-6.064
		c-1.375-0.702-3.258-1.95-3.87-2.466c-0.611-0.517-2.801,0.044-2.142-0.33c0.661-0.375,4.429-1.943,7.344-8.359
		c-2.778,3.526-14.278,8.86-20.405-0.777c0,0-10.162,13.746-23.188,15.688c2.262,1.368,2.51,0.82,2.377,3.035
		c-0.135,2.217-1.754,13.731-2.617,18.776c-0.861,5.045-0.115,4.103-4.027,5.435c1.11,0.93,3.18,1.418,2.375,7.322
		c-0.807,5.905-1.707,8.837,0.514,10.938c2.222,2.103,0.961,1.904-0.221,2.758c-1.183,0.853-4.789,4.949-6.313,7.513
		c1.943-1.002,6.02-3.507,10.131-2.642c9.413,1.981,9.045,2.225,14.835,2.453c1.537,0.023,12.271,0.219,17.36-12.989
		c-2.529,1.55-2.588,1.86-2.406,0.534C285.055,167.988,290.331,130.704,290.742,128.491z"/>
	<path fill="#343B49" d="M311.789,149.568c0,0-0.08,2.392,2.215,0.313c-1.742,3.164-2.081,2.567-2.455,3.362
		c-0.375,0.796-0.979,2.649-1.543,7.794c0,0-0.51,3.711-0.7,5.12c-0.188,1.407-0.307,3.325,1.973,3.698
		c-2.188,0.621-13.272,3.321-22.376,15.145c-3.002-2.479-12.248-9.033-20.131-0.707c0.924-4.132,8.722-11.914,18.729-12.447
		c10.007-0.535,8.477,6.1,9.492-1.324c1.018-7.424,4.458-29.381,4.799-32.185c0.341-2.803,0.609-6.41-2.462-7.509
		c1.364-1.305,3.368,1.451,4.597-7.936c0.383-2.917,0.748-5.706,1.076-8.183c4.721,0.086,12.048-1.153,11.698,1.145
		C315.028,126.84,311.789,149.568,311.789,149.568z"/>
	<path fill="#343B49" d="M321.777,110.291c-7.361,18.963-34.375,13.508-36.146,9.644c1.351-1.587,3.952-3.5,8.767-10.899
		c3.713,3.059,8.151,5.085,12.813,5.907C312.894,115.943,318.575,114.167,321.777,110.291z"/>
	<g>
		<defs>
			<filter id="Adobe_OpacityMaskFilter_2_" filterUnits="userSpaceOnUse" x="17.587" y="15.408" width="93.361" height="200.178">
				<feFlood  style="flood-color:white;flood-opacity:1" result="back"/>
				<feBlend  in="SourceGraphic" in2="back" mode="normal"/>
			</filter>
		</defs>
		<mask maskUnits="userSpaceOnUse" x="17.587" y="15.408" width="93.361" height="200.178" id="SVGID_3_">
			<g filter="url(#Adobe_OpacityMaskFilter_2_)">
				<path fill="#010101" d="M69.333,87.855c0.398-2.741-0.114-5.258,2.673-1.705c3.181,4.055,4.671,4.999,7.182,8.549
					c2.511,3.551,15.705,13.806,6.752,22.309c-6.552,6.223-12.933,9.521-23.939,24.631C67.857,100.812,68.566,93.146,69.333,87.855z
					"/>
			</g>
		</mask>
		<path mask="url(#SVGID_3_)" fill="#343B49" d="M63.454,131.448c0.261-1.843,0.896-2.497,3.119-2.802
			c3.252-0.446,12.98-4.172,22.36-10.544c9.379-6.37,21.916-19.157,22.013-26.37c0.099-7.213-3.106-10.247-8.43-15.491
			c-5.324-5.244-26.223-29.283-27.564-39.464c-1.341-10.18,1.094-17.625,6.235-21.369c-6.556,4.246-29.594,23.89-20.937,46.177
			c2.907,8.495,6.757,12.617,6.964,13.513c0.208,0.896-1.086,1.659-3.689,2.919c-2.603,1.258-15.175,11.857-17.834,14.081
			c-2.658,2.224-7.552,5.581-8.937,5.653c0.482,1.042,2.646,1.568,2.888,3.104c0.242,1.536,0.923,9.349,0.252,13.309
			c-0.67,3.959-3.847,27.115-4.341,31.386c-0.495,4.271-1.828,3.302-3.256,3.536c-1.429,0.234-4.208,0.705-5.211,1.396
			c2.055,1.015,7.449,3.05,6.294,12.963c-1.156,9.912-3.325,32.453-5.707,34.342c-2.382,1.889-3.979,3.495-5.146,5.64
			c-1.167,2.146-3.948,7.097-4.94,8.03c2.941-1.917,10.589-8.73,15.651-8.438c5.062,0.291,10.753,0.39,31.056,8.684
			c5.814,2.414,10.465,5.531,14.167,2.854c3.703-2.68,11.451-9.098,13.468-11.848c2.017-2.751,7.982-11.077,9.431-12.436
			c-4.909,1.062-10.246,4.629-16.813,3.136c-6.567-1.495-25.393-6.103-27.007-6.336c-1.613-0.235-1.959-0.698-1.468-3.526
			c0.255-1.469,2.531-15.777,4.253-28.525C61.919,143.213,63.354,132.16,63.454,131.448z"/>
		<path fill="#343B49" d="M83.7,151.678c-10.911-20.072-40.222-10.135-41.639-5.578c1.729,1.576,4.903,3.336,11.32,10.889
			c3.7-3.938,8.355-6.827,13.432-8.41C72.996,146.65,79.578,147.816,83.7,151.678z"/>
	</g>
	<g>
		<path fill="#343B49" d="M130.681,155.289c1.341-10.229,2.72-20.18,3.693-22.822c1.434-3.892,4.245-8.21,6.79-8.906
			c-6.471,0.508-14.776,4.289-17.97,11.228c-0.521,1.077-0.184,1.125-1.074,0.801c-0.892-0.321-2.989-0.567-4.228-0.509
			c1.307,0.67,3.534,1.943,3.537,4.587c0,1.356-0.818,8.406-1.691,15.508C118.909,161.904,130.048,160.118,130.681,155.289z"/>
		<path fill="#343B49" d="M116.819,123.428c0.34-2.921,0.451-3.197,0.607-3.771c0.156-0.578,0.413-1.144,1.174-1.416
			c0.959-0.344,4.417-3.064,6.94-3.23c-2.186-0.161-15.464-2.118-16.102-9.229c-2.659,2.374-10.762,10.342-10.969,10.874
			c-0.207,0.533,2.791,2.114,3.984,2.663c1.079,0.497,1.221-0.164,0.938,2.363c-0.285,2.522-3.434,26.076-3.606,27.508
			c-0.172,1.43,0.119,2.105-1.078,2.144c-1.197,0.036-3.269,0.215-4.038,0.573c1.663,0.617,4.888-0.053,3.799,9.335
			c-0.708,6.103-1.915,11.463-1.585,14.235c0.246,2.06,1.698,2.285,2.939,2.459c2.909,0.403-0.632,1.385-1.83,1.547
			c-1.197,0.162-5.421,1.205-6.009-1.647c-1.308,1.967-1.649,6.813,0.906,8.515c2.557,1.7,2.71,2.733,7.352,0.295
			c4.643-2.438,12.237-6.229,15.092-5.11c0.14-1.711-0.424-4.991-2.846-5.14c-2.421-0.146-2.759,1.006-2.135-1.772
			c0.154-0.685,0.719-4.729,1.314-9.319c-0.397,0.271-1.521,1.141-1.435,0.698c0.126-0.642,1.707-2.946,2.331-7.711
			C114.469,143.758,116.584,125.445,116.819,123.428z"/>
		<path fill="#343B49" d="M121.354,140.916c-0.36,2.545-0.489,4.979-1.555,13.741c-0.229,1.881-0.543,4.616-1.287,6.43
			c-0.478,1.167-1.134,1.951-2.061,1.883c-2.059-0.155-9.376,5.462-15.427,10.688c-1.596,1.379-0.489,2.688,2.182,2.256
			c2.925-0.473,6.133,0.245,8.9,3.605c5.692-6.537,12.348-11.996,19.483-13.302c-1.66-0.216-1.938-1.635-1.854-4.569
			c0.086-2.938,0.318-4.44,0.769-5.138c0.451-0.696,2.125-2.497,2.088-3.166c-0.996,0.785-1.776,1.784-1.661,0.548
			c0.362-3.228,1.077-8.967,1.292-12.367C132.279,140.682,121.714,138.361,121.354,140.916z"/>
	</g>
	<g>
		<g>
			<path fill="#343B49" d="M182.743,130.459c1.32,0.846,1.52-0.534,1.055,3.727c-0.465,4.264-0.793,11.439-2.199,12.282
				c-1.379,0.828-2.96,0.702-3.175,0.669c1.589,1.135,3.236,2.608,2.857,5.838c0,0-2.116,15.041-1.94,16.19
				c0.177,1.149-0.341,1.577,2.956,2.556c0.74,0.271,0.135,0.657-0.482,0.771c-0.617,0.11-2.87,0.547-4.181,0.452
				c-1.311-0.098-2.394-0.906-2.539-1.803c-0.489,1.135-1.893,4.695-0.325,6.851c1.568,2.149,3.164,4.205,8.914,1.042
				c5.749-3.164,10.911-4.217,11.995-2.878c0.039-1.384-0.132-5.489-2.633-5.354c-1.058,0.076-1.725,0.063-1.569-0.818
				c0.156-0.883,2.013-15.523,2.623-19.405c0.609-3.884,2.38-18.263,2.689-20.294c0.268-1.76,0.964-1.639,1.633-1.537
				c3.953,0.589,7.541,3.111,7.271,5.583c-0.162,1.491-1.043,8.03-1.158,9.097c-0.116,1.066-3.965,2.029-4.434,2.34
				c1.238,0.396,3.657,3.076,12.117-0.896c1.175-6.001,2.705-8.244,2.982-10.664c0.344-2.994,2.128-2.939,3.735-3.957
				c-1.838-0.952-3.154-3.934-2.918-4.424c0.236-0.491-15.287-1.397-17.367-9.818c-1.146,3.26-3.259,4.51-7.187,7.782
				C187.666,126.951,183.146,130.525,182.743,130.459z"/>
			<path fill="#343B49" d="M206.686,126.412c-0.982,8.718-2.004,17.199-2.791,19.461c-1.158,3.329-3.48,7.045-5.635,7.677
				c5.493-0.53,12.497-3.874,15.105-9.821c0.426-0.924,0.139-0.959,0.9-0.695c0.764,0.26,2.551,0.438,3.604,0.365
				c-1.121-0.549-3.035-1.599-3.077-3.846c-0.022-1.152,0.565-7.158,1.199-13.21C216.591,120.605,207.148,122.296,206.686,126.412z"
				/>
		</g>
		<path fill="#343B49" d="M225.273,115.233c-6.932,18.71-34.294,14.193-36.088,10.43c3.742-3.298,4.612-3.911,9.217-11.242
			c3.689,2.942,8.075,4.862,12.661,5.597C216.646,120.913,222.191,119.084,225.273,115.233z"/>
	</g>
</g>
</svg>
